<?xml version="1.0" encoding="UTF-8"?>
<svg version="1.1" viewBox="0 0 1500 1500" width="1500" height="1500" xmlns="http://www.w3.org/2000/svg">
<path transform="translate(642,123)" d="m0 0h189l5 12 17 49 16 45 19 54 17 48 19 54 16 45 19 54 34 96 19 54 17 48 19 54 17 48 19 54 15 42 20 57 18 50 11 27 13 29 10 20 13 23 10 15 12 16 9 10 12 12 10 7 16 9 16 6 14 3 21 2v65l-15 5-21 5-25 4-29 2h-22l-23-2-20-4-18-6-18-8-17-9-12-8-12-9-13-11-16-15-9-10-13-16-14-21-12-21-12-26-11-31-10-29-22-64-15-43-17-49-10-28v-2h-408l-2 9-15 44-15 43-16 47-15 43-12 36-5 23-1 6v24l4 16 5 10 8 10 10 7 13 6 15 4 13 2 72 1v64l-1 1h-388v-65l21-2 14-3 16-6 14-7 13-10 12-11 9-11 11-15 12-19 10-18 13-25 15-33 11-30 21-58 21-57 23-64 21-57 23-64 21-57 23-64 21-57 23-64 21-57 23-64 21-57 23-64 18-49 7-19zm52 123-21 62-14 41-19 56-117 344v1h351l-10-30-16-45-19-54-15-42-19-54-19-53-21-60-51-144-8-22z" fill="#326EA1"/>
</svg>
